<?xml version="1.0" standalone="no"?>
<!DOCTYPE svg PUBLIC "-//W3C//DTD SVG 20010904//EN"
 "http://www.w3.org/TR/2001/REC-SVG-20010904/DTD/svg10.dtd">
<svg version="1.0" xmlns="http://www.w3.org/2000/svg"
 width="514.000000pt" height="514.000000pt" viewBox="0 0 514.000000 514.000000"
 preserveAspectRatio="xMidYMid meet">
<metadata>
Created by potrace 1.11, written by Peter Selinger 2001-2013
</metadata>
<g transform="translate(0.000000,514.000000) scale(0.100000,-0.100000)"
fill="#000000" stroke="none">
<path d="M2554 4268 c-72 -66 -166 -188 -288 -373 -216 -326 -334 -563 -429
-865 -20 -63 -41 -121 -46 -129 -8 -12 -31 -6 -138 36 -387 154 -841 242
-1269 246 -219 3 -217 5 -163 -257 64 -313 157 -591 289 -861 261 -535 568
-815 1044 -951 81 -23 114 -27 301 -31 224 -6 427 6 591 34 100 17 105 17 258
-5 337 -48 609 -52 810 -11 362 74 706 324 943 685 111 171 241 455 335 733
74 221 110 380 133 593 l6 57 -48 8 c-78 13 -348 7 -483 -11 -288 -39 -553
-98 -820 -181 -80 -25 -151 -46 -158 -48 -9 -1 -28 39 -56 118 -120 339 -277
633 -530 990 -87 123 -209 265 -227 265 -5 0 -30 -19 -55 -42z m147 -240 c126
-170 279 -403 336 -509 101 -187 225 -498 248 -621 l7 -36 -94 -63 c-159 -106
-341 -299 -448 -474 -61 -100 -102 -188 -145 -315 -21 -60 -41 -110 -45 -110
-4 0 -24 51 -45 113 -91 264 -260 519 -453 679 -42 35 -93 79 -114 100 -36 34
-38 39 -32 80 18 118 147 445 260 656 105 195 397 612 430 612 7 0 50 -51 95
-112z m-2142 -968 c366 -28 805 -127 1066 -240 66 -28 125 -54 131 -56 7 -3
13 -71 17 -197 6 -213 23 -327 68 -462 72 -215 193 -392 453 -665 91 -96 166
-177 166 -181 0 -11 -116 -35 -255 -55 -148 -20 -428 -15 -545 11 -263 58
-460 161 -644 335 -243 231 -446 591 -585 1035 -37 119 -121 441 -121 464 0
21 71 24 249 11z m4205 0 c31 -12 34 -43 11 -152 -62 -295 -214 -702 -355
-948 -246 -429 -562 -671 -975 -746 -141 -26 -466 -26 -622 0 -62 10 -113 21
-113 24 0 3 71 76 158 161 175 173 273 286 352 406 159 245 219 487 220 885
l0 115 63 23 c392 148 689 206 1209 240 15 1 38 -2 52 -8z m-1448 -385 c7 -42
-2 -188 -21 -330 -34 -249 -138 -460 -339 -687 -83 -93 -291 -288 -308 -288
-18 0 -19 59 -4 198 51 447 176 729 430 970 83 79 204 172 223 172 7 0 15 -16
19 -35z m-1271 -138 c265 -273 362 -479 419 -895 20 -144 20 -182 1 -182 -31
0 -225 203 -341 357 -142 188 -234 481 -234 744 0 113 24 110 155 -24z"/>
</g>
</svg>
